<?xml version="1.0" encoding="UTF-8"?>
<svg width="16" height="16" version="1.1" viewBox="0 0 4.2333 4.2333" xmlns="http://www.w3.org/2000/svg"><path transform="scale(.26458)" d="m0 0v1.209l2.9902 6.4551-2.9902 6.459v1.877h7.0547l0.91406-2.3496 0.92188 2.3496h7.1094v-1.7441l-3.0508-6.5918 3.0508-6.5352v-1.1289h-7.334l-0.72461 1.8457-0.69531-1.8457h-7.2461z" fill="#fdd835"/><path d="m2.7739 0.0058728c-0.33841 0-0.625 0.065381-0.8208 0.35303l-0.03589-0.3589h-0.94996v1.5079h-0.96723v0.77219h0.96723v1.9532h1.0296v-0.62135c0.19293 0.25531 0.44789 0.38357 0.7649 0.38357 0.41817 0 0.73238-0.16475 0.94267-0.49349 0.21271-0.32874 0.31908-0.80127 0.31908-1.4177v-0.30058c-0.0048351-0.62847-0.11366-1.0951-0.32637-1.3997-0.2103-0.30457-0.50506-0.37826-0.92323-0.37826zm-0.32058 0.7809c0.19821 0 0.3384 0.07841 0.42059 0.23553 0.084601 0.15712 0.1273 0.42522 0.1273 0.80472v0.2574c0 0.36258-0.040241 0.62973-0.12001 0.80135-0.07735 0.17162-0.21754 0.2574-0.42058 0.2574-0.21723 0-0.37148-0.082842-0.46377-0.24786v-0.61518h0.61237v-0.77219h-0.61237v-0.31908c0-0.059809 0.00573-0.11268 0.01402-0.16263 0.097271-0.15787 0.24354-0.23945 0.44246-0.23945z" fill="#2d2522"/></svg>
