<?xml version="1.0" encoding="UTF-8"?>
<svg width="95.258" height="95.258" version="1.1" xmlns="http://www.w3.org/2000/svg"><g transform="scale(.47629)" stroke-width="2.0996"><rect width="200" height="200" ry="14.175" fill="#fff" stroke-linecap="round" stroke-linejoin="round" stroke-width=".5158"/><g transform="translate(-614.09,-142.78)"><g fill="#333" stroke-width="2.0996"><path transform="translate(-72.786,-85.361)" d="m713.09 278.5v68.062h147.56v-68.062h-5.8712l-0.12879 62.062h-135.56v-56.062h115.34v-6h-118.34z" color="#000000" style="text-decoration-line:none;text-indent:0;text-transform:none"/><path transform="translate(-72.786,-85.361)" d="m747.71 313.26c-2e-5 -5.1406-0.53127-8.8125-1.5938-11.016-1.0469-2.2031-2.7735-3.3047-5.1797-3.3047-2.3906 3e-5 -4.1172 1.1016-5.1797 3.3047-1.0469 2.2032-1.5703 5.875-1.5703 11.016-1e-5 5.125 0.52343 8.7891 1.5703 10.992 1.0625 2.2031 2.789 3.3047 5.1797 3.3047 2.4062 0 4.1328-1.0938 5.1797-3.2812 1.0625-2.2031 1.5937-5.875 1.5938-11.016m4.9453 0c-3e-5 6.0938-0.96878 10.641-2.9062 13.641-1.9219 3-4.8594 4.5-8.8125 4.5s-6.8906-1.4922-8.8125-4.4766-2.8828-7.539-2.8828-13.664c0-6.1094 0.96093-10.664 2.8828-13.664 1.9375-3 4.875-4.5 8.8125-4.5 3.9531 4e-5 6.8906 1.5 8.8125 4.5 1.9375 3 2.9062 7.5547 2.9062 13.664"/><path transform="translate(-72.786,-85.361)" d="m779.1 296.93v4.8047c-1.4375-0.92184-2.8828-1.6172-4.3359-2.0859-1.4375-0.46871-2.8906-0.70309-4.3594-0.70312-2.2344 3e-5 -4 0.52347-5.2969 1.5703-1.2969 1.0313-1.9453 2.4297-1.9453 4.1953-1e-5 1.5469 0.42187 2.7266 1.2656 3.5391 0.85936 0.81252 2.4531 1.4922 4.7812 2.0391l2.4844 0.5625c3.2812 0.76564 5.6718 1.9688 7.1719 3.6094 1.5 1.6406 2.25 3.875 2.25 6.7031-3e-5 3.3281-1.0313 5.8672-3.0938 7.6172s-5.0625 2.625-9 2.625c-1.6406 0-3.2891-0.17969-4.9453-0.53907-1.6562-0.34375-3.3203-0.86718-4.9922-1.5703v-5.0391c1.7969 1.1406 3.4922 1.9766 5.0859 2.5078 1.6094 0.53126 3.2266 0.79688 4.8516 0.79688 2.3906 0 4.25-0.53125 5.5781-1.5938 1.3281-1.0781 1.9922-2.5781 1.9922-4.5-2e-5 -1.75-0.46096-3.0859-1.3828-4.0078-0.90627-0.92186-2.4922-1.6328-4.7578-2.1328l-2.5312-0.58594c-3.25-0.73435-5.6094-1.8437-7.0781-3.3281-1.4688-1.4844-2.2031-3.4765-2.2031-5.9766 0-3.125 1.0469-5.625 3.1406-7.5 2.1094-1.8906 4.9062-2.8359 8.3906-2.8359 1.3437 4e-5 2.7578 0.15629 4.2422 0.46875 1.4844 0.29691 3.0468 0.75003 4.6875 1.3594"/><path transform="translate(-72.786,-85.361)" d="m787.46 295.73h4.7578v14.344h12.961v-14.344h4.7578v34.992h-4.7578v-16.664h-12.961v16.664h-4.7578v-34.992"/></g><path transform="translate(-72.786,-85.361)" d="m813.13 295.73h4.6172l3.3516 28.406 3.9844-18.797h4.9453l4.0312 18.844 11.352-54.453h4.6172l-13.227 60.992h-4.4766l-4.7578-20.789-4.7344 20.789h-4.4766l-5.2266-34.992" fill="#f44" stroke-width="4.4081"/><g fill="#333" stroke-width="2.0996" aria-label="AU000008"><path d="m652.25 278.17-3.1945 11.458h6.389zm-1.8297-2.6696h3.6744l6.8539 22.392h-3.1345l-1.6497-5.8341h-7.8438l-1.6197 5.8341h-3.1345z"/><path d="m663.71 289.3v-13.798h3.0445v15.178q0 1.6347 0.09 2.3396 0.09 0.68989 0.31495 1.0648 0.47992 0.88487 1.3798 1.3348 0.91486 0.44993 2.2047 0.44993 1.3048 0 2.2046-0.44993 0.89986-0.44993 1.3948-1.3348 0.22496-0.37494 0.31495-1.0648 0.09-0.68989 0.09-2.3096v-15.208h3.0295v13.798q0 3.4345-0.43493 4.8892-0.41994 1.4398-1.4698 2.3846-0.98985 0.88487-2.2646 1.3198t-2.8646 0.43493q-1.5748 0-2.8496-0.43493-1.2748-0.43493-2.2796-1.3198-1.0348-0.92985-1.4698-2.3996-0.43493-1.4848-0.43493-4.8742z"/><path d="m687.24 286.64q0-0.82487 0.56991-1.4248 0.58491-0.59991 1.3948-0.59991 0.83986 0 1.4398 0.59991t0.59991 1.4248q0 0.83987-0.59991 1.4248-0.58491 0.58491-1.4398 0.58491-0.83987 0-1.4098-0.56991-0.55492-0.56991-0.55492-1.4398zm1.9947-9.1486q-2.1147 0-3.1645 2.2796-1.0348 2.2796-1.0348 6.9439 0 4.6493 1.0348 6.9289 1.0498 2.2796 3.1645 2.2796 2.1297 0 3.1645-2.2796 1.0498-2.2796 1.0498-6.9289 0-4.6643-1.0498-6.9439-1.0348-2.2796-3.1645-2.2796zm0-2.3996q3.5844 0 5.4142 2.9395 1.8447 2.9395 1.8447 8.6836 0 5.7291-1.8447 8.6686-1.8297 2.9395-5.4142 2.9395t-5.4142-2.9395q-1.8297-2.9395-1.8297-8.6686 0-5.7441 1.8297-8.6836 1.8297-2.9395 5.4142-2.9395z"/><path d="m705.73 286.64q0-0.82487 0.56991-1.4248 0.58491-0.59991 1.3948-0.59991 0.83987 0 1.4398 0.59991 0.59991 0.59991 0.59991 1.4248 0 0.83987-0.59991 1.4248-0.58491 0.58491-1.4398 0.58491-0.83987 0-1.4098-0.56991-0.55492-0.56991-0.55492-1.4398zm1.9947-9.1486q-2.1147 0-3.1645 2.2796-1.0348 2.2796-1.0348 6.9439 0 4.6493 1.0348 6.9289 1.0498 2.2796 3.1645 2.2796 2.1297 0 3.1645-2.2796 1.0498-2.2796 1.0498-6.9289 0-4.6643-1.0498-6.9439-1.0348-2.2796-3.1645-2.2796zm0-2.3996q3.5844 0 5.4142 2.9395 1.8447 2.9395 1.8447 8.6836 0 5.7291-1.8447 8.6686-1.8297 2.9395-5.4142 2.9395t-5.4142-2.9395q-1.8297-2.9395-1.8297-8.6686 0-5.7441 1.8297-8.6836 1.8297-2.9395 5.4142-2.9395z"/><path d="m724.22 286.64q0-0.82487 0.56992-1.4248 0.5849-0.59991 1.3948-0.59991 0.83987 0 1.4398 0.59991 0.59991 0.59991 0.59991 1.4248 0 0.83987-0.59991 1.4248-0.58491 0.58491-1.4398 0.58491-0.83987 0-1.4098-0.56991-0.55492-0.56991-0.55492-1.4398zm1.9947-9.1486q-2.1147 0-3.1645 2.2796-1.0348 2.2796-1.0348 6.9439 0 4.6493 1.0348 6.9289 1.0498 2.2796 3.1645 2.2796 2.1297 0 3.1645-2.2796 1.0498-2.2796 1.0498-6.9289 0-4.6643-1.0498-6.9439-1.0348-2.2796-3.1645-2.2796zm0-2.3996q3.5844 0 5.4142 2.9395 1.8447 2.9395 1.8447 8.6836 0 5.7291-1.8447 8.6686-1.8297 2.9395-5.4142 2.9395t-5.4142-2.9395q-1.8297-2.9395-1.8297-8.6686 0-5.7441 1.8297-8.6836 1.8297-2.9395 5.4142-2.9395z"/><path d="m742.71 286.64q0-0.82487 0.56991-1.4248 0.58491-0.59991 1.3948-0.59991 0.83987 0 1.4398 0.59991 0.59991 0.59991 0.59991 1.4248 0 0.83987-0.59991 1.4248-0.5849 0.58491-1.4398 0.58491-0.83987 0-1.4098-0.56991-0.55491-0.56991-0.55491-1.4398zm1.9947-9.1486q-2.1147 0-3.1645 2.2796-1.0348 2.2796-1.0348 6.9439 0 4.6493 1.0348 6.9289 1.0498 2.2796 3.1645 2.2796 2.1297 0 3.1645-2.2796 1.0498-2.2796 1.0498-6.9289 0-4.6643-1.0498-6.9439-1.0348-2.2796-3.1645-2.2796zm0-2.3996q3.5844 0 5.4142 2.9395 1.8447 2.9395 1.8447 8.6836 0 5.7291-1.8447 8.6686-1.8297 2.9395-5.4142 2.9395t-5.4142-2.9395-1.8297-8.6686q0-5.7441 1.8297-8.6836t5.4142-2.9395z"/><path d="m761.21 286.64q0-0.82487 0.56991-1.4248 0.58491-0.59991 1.3948-0.59991 0.83987 0 1.4398 0.59991 0.5999 0.59991 0.5999 1.4248 0 0.83987-0.5999 1.4248-0.58491 0.58491-1.4398 0.58491-0.83987 0-1.4098-0.56991-0.55491-0.56991-0.55491-1.4398zm1.9947-9.1486q-2.1147 0-3.1645 2.2796-1.0348 2.2796-1.0348 6.9439 0 4.6493 1.0348 6.9289 1.0498 2.2796 3.1645 2.2796 2.1297 0 3.1645-2.2796 1.0498-2.2796 1.0498-6.9289 0-4.6643-1.0498-6.9439-1.0348-2.2796-3.1645-2.2796zm0-2.3996q3.5844 0 5.4142 2.9395 1.8447 2.9395 1.8447 8.6836 0 5.7291-1.8447 8.6686-1.8297 2.9395-5.4142 2.9395t-5.4142-2.9395q-1.8297-2.9395-1.8297-8.6686 0-5.7441 1.8297-8.6836 1.8297-2.9395 5.4142-2.9395z"/><path d="m781.69 287.26q-2.0247 0-3.1345 1.1398-1.0948 1.1248-1.0948 3.1945 0 2.0697 1.1098 3.2245 1.1248 1.1398 3.1195 1.1398 2.0397 0 3.1345-1.1248 1.1098-1.1398 1.1098-3.2395 0-2.0547-1.1248-3.1945-1.1098-1.1398-3.1195-1.1398zm-2.6396-1.2598q-1.9347-0.49493-3.0295-1.8447-1.0798-1.3498-1.0798-3.2545 0-2.6696 1.8147-4.2293 1.8147-1.5748 4.9342-1.5748 3.1345 0 4.9492 1.5748 1.8147 1.5598 1.8147 4.2293 0 1.9047-1.0948 3.2545-1.0798 1.3498-3.0145 1.8447 2.2496 0.49492 3.4345 1.9947 1.1998 1.4998 1.1998 3.8844 0 3.0295-1.9347 4.7393t-5.3542 1.7097q-3.4195 0-5.3542-1.6947-1.9197-1.7097-1.9197-4.7243 0-2.3996 1.1848-3.8994 1.1998-1.5148 3.4495-2.0097zm-1.0948-4.8142q0 1.7997 0.95985 2.7446t2.7746 0.94485q1.8297 0 2.7896-0.94485t0.95985-2.7446q0-1.8297-0.95985-2.7896-0.94485-0.95985-2.7896-0.95985-1.8147 0-2.7746 0.97484-0.95985 0.95985-0.95985 2.7746z"/></g></g></g></svg>
